<svg width="41" height="41" viewBox="0 0 41 41" fill="none" xmlns="http://www.w3.org/2000/svg">
<g clip-path="url(#clip0_17438_24)">
<path d="M11.3259 18.7813C10.8512 18.7813 10.4468 18.8779 10.2141 18.9487C10.0803 18.9894 9.98812 19.1056 9.96491 19.2435C9.9119 19.5582 10.2371 19.8392 10.5539 19.8005C10.6973 19.783 10.8587 19.7714 11.0348 19.7714C11.442 19.7714 11.7395 19.8167 11.7395 20.1474C11.7395 20.3158 11.5928 20.4131 11.4247 20.4037C11.3541 20.3997 11.2841 20.3967 11.2338 20.3967C10.2883 20.3967 9.2954 20.799 9.2954 22.0164C9.2954 22.9753 9.94625 23.1942 10.3506 23.1942C10.8376 23.1942 11.1498 22.9948 11.3181 22.8475C11.404 22.7723 11.4628 22.7966 11.4529 22.9104C11.4436 23.0181 11.5285 23.1106 11.6365 23.1106H11.9716C12.2163 23.1106 12.4238 22.9306 12.4583 22.6884L12.7947 20.329C12.8164 20.177 12.8323 20.0229 12.814 19.8704C12.6871 18.8173 11.6878 18.7813 11.3259 18.7813ZM10.7862 22.2777C10.447 22.2777 10.3584 22.0192 10.3584 21.8648C10.3584 21.566 10.5206 21.2062 11.3216 21.2062C11.4643 21.2067 11.5669 21.3302 11.5407 21.4705C11.4811 21.7905 11.2814 22.2777 10.7862 22.2777ZM14.2005 20.1467C14.2005 20.6927 15.5029 20.4243 15.5029 21.7827C15.5029 23.2352 14.0957 23.1715 13.8499 23.1715C13.7525 23.1715 13.6623 23.1701 13.5788 23.1675C13.0277 23.1507 12.6861 22.6265 12.7692 22.0816C12.7706 22.0745 13.2295 22.2487 13.7402 22.2487C14.0348 22.2487 14.4172 22.2197 14.4172 21.8684C14.4172 21.3401 13.0489 21.4675 13.0489 20.2154C13.0489 19.1113 13.8691 18.7884 14.6778 18.7884C14.882 18.7884 15.0604 18.7975 15.2082 18.8098C15.4798 18.8325 15.6565 19.0823 15.6179 19.3521C15.5788 19.6254 15.3335 19.82 15.058 19.8021C14.9497 19.795 14.8521 19.7898 14.8018 19.7898C14.4123 19.7905 14.2005 19.8755 14.2005 20.1467ZM16.7947 21.8096C16.7706 21.959 16.8124 22.1623 17.1927 22.1623C17.3424 22.1623 17.455 22.2626 17.4332 22.4108L17.3871 22.7245C17.3572 22.9278 17.2125 23.1034 17.0116 23.1466C16.8746 23.1761 16.7063 23.2013 16.5185 23.2027C16.0093 23.2076 15.6474 22.9215 15.6474 22.2763C15.6474 21.9143 16.0806 19.3633 16.2375 18.5187C16.27 18.3436 16.3922 18.248 16.5704 18.248H17.0618C17.2307 18.248 17.3588 18.4003 17.3297 18.5667L17.3219 18.6116C17.297 18.7545 17.407 18.8854 17.552 18.8854C17.6935 18.8854 17.8025 19.0102 17.7835 19.1504L17.7194 19.6233C17.6968 19.7897 17.5548 19.9137 17.3869 19.9137C17.2223 19.9137 17.082 20.0331 17.0557 20.1956L16.7947 21.8096ZM-nan -nanL21.0114 21.3585C21.0114 21.3585 21.1552 20.6503 21.1552 20.362C21.1552 19.6418 20.7968 18.7636 19.5971 18.7636C18.4979 18.7643 17.6842 19.9484 17.6842 21.2869C17.6842 22.8316 18.7033 23.1984 19.5723 23.1984C20.024 23.1984 20.3331 23.1413 20.517 23.0915C20.6522 23.0548 20.7415 22.9376 20.7667 22.7998C20.8316 22.4447 20.4628 22.1452 20.1066 22.2033C19.9921 22.222 19.8741 22.2338 19.7586 22.2338C19.5306 22.2338 19.3547 22.2008 19.2192 22.1476C18.6838 21.9373 19.1971 21.3585 19.7724 21.3585H21.0114L-nan -nanZM19.6006 19.743C19.796 19.743 19.9181 19.8126 19.9937 19.9094C20.1998 20.1735 19.8319 20.4916 19.4969 20.4916C19.1619 20.4916 18.9009 20.1899 19.1291 19.9446C19.2359 19.8299 19.3874 19.743 19.6006 19.743ZM8.61127 17.9102C9.17462 17.9102 9.60334 18.4157 9.51131 18.9715L8.90191 22.6519C8.85763 22.9194 8.62631 23.1155 8.35518 23.1155H8.0981C7.89236 23.1155 7.73534 22.9317 7.76757 22.7285C7.83125 22.327 7.25891 22.1806 7.12195 22.5633L7.01101 22.8733C6.959 23.0186 6.8213 23.1155 6.66695 23.1155H6.50975C6.32157 23.1155 6.16772 22.9655 6.16304 22.7774C6.15259 22.3576 5.54453 22.3141 5.47438 22.7281L5.45893 22.8192C5.42993 22.9903 5.28171 23.1155 5.10817 23.1155H4.96915C4.64737 23.1155 4.40272 22.8264 4.456 22.5091L5.10594 18.6379C5.17646 18.2178 5.54009 17.9102 5.96603 17.9102H6.35865C6.61642 17.9102 6.82664 18.1167 6.83115 18.3745C6.84044 18.9048 7.58194 19.0198 7.75144 18.5172L7.83708 18.2633C7.90824 18.0523 8.10612 17.9102 8.32882 17.9102H8.61127ZM23.2215 16.4611C23.379 16.8293 23.098 17.2246 22.6975 17.2246H18.7407C18.3306 17.2246 17.9891 16.9106 18.1741 16.5446C18.2652 16.3643 18.5174 16.1248 18.7194 16.1248H22.6997C22.9259 16.1248 23.1325 16.2532 23.2215 16.4611ZM21.8571 14.1647C22.1469 14.5333 21.8687 15.0461 21.3999 15.0461H20.0281C19.5765 15.0461 19.2998 14.5544 19.5595 14.1849C19.6651 14.0346 19.8393 13.947 20.0231 13.947H21.4014C21.5787 13.947 21.7476 14.0253 21.8571 14.1647ZM20.6693 28.1085C20.6657 28.1116 20.6602 28.1117 20.6567 28.1085C20.5407 28.0035 20.4281 27.8951 20.3184 27.7838C20.0205 27.4818 20.2495 26.9923 20.6737 26.9923C21.0977 26.9923 21.3224 27.4777 21.0216 27.7766C20.9137 27.8837 20.8035 27.9886 20.691 28.0911C20.6907 28.0913 20.6904 28.0915 20.69 28.0915H20.6888C20.6886 28.0915 20.6885 28.0918 20.6886 28.0919C20.6887 28.0921 20.6887 28.0925 20.6885 28.0927C20.6823 28.0979 20.6757 28.1031 20.6693 28.1085ZM22.6597 25.6559C22.5577 25.8312 22.3684 25.9342 22.1656 25.9342H19.1769C18.973 25.9342 18.7829 25.8305 18.679 25.655C18.4585 25.2827 18.7386 24.8351 19.1713 24.8351H22.1633C22.5945 24.8351 22.8766 25.2833 22.6597 25.6559ZM23.5794 18.8337C23.6867 18.8326 23.7437 18.9398 23.6994 19.0375C23.6409 19.1664 23.5846 19.308 23.5289 19.4963C23.4342 19.8164 23.023 20.0431 22.8489 20.3279C22.5991 20.7367 22.494 21.6161 22.3254 22.6625C22.2823 22.9295 22.0507 23.124 21.7802 23.124C21.4371 23.124 21.1756 22.817 21.2301 22.4783L21.7401 19.3102C21.7793 19.0666 21.9896 18.8875 22.2363 18.8875H22.722C22.7765 18.8875 22.818 18.9362 22.8094 18.99C22.7937 19.0883 22.9709 19.1617 23.0427 19.0926C23.1867 18.9541 23.3716 18.8337 23.5794 18.8337ZM25.8138 22.1347C25.828 22.1347 25.8425 22.1343 25.8571 22.1335C26.234 22.1138 26.632 22.3878 26.571 22.7602C26.5412 22.9416 26.407 23.0887 26.2268 23.1248C26.0271 23.1648 25.7646 23.2083 25.5659 23.2083C24.2614 23.2083 23.5992 22.3082 23.5992 20.9449C23.5992 18.8889 24.8266 17.794 26.0879 17.794C26.3871 17.794 26.7118 17.868 26.9525 17.9381C27.1701 18.0015 27.2944 18.22 27.2599 18.444C27.2047 18.8016 26.7718 18.9952 26.4155 18.9323C26.3273 18.9168 26.234 18.9073 26.1375 18.9073C25.3938 18.9073 24.7267 19.617 24.7267 20.9073C24.7267 21.5426 25.0376 22.1347 25.8138 22.1347ZM36.4838 22.5129C36.4307 22.5412 36.3896 22.5823 36.3598 22.6361C36.3301 22.6892 36.3152 22.7444 36.3152 22.8018C36.3152 22.8592 36.3301 22.9137 36.3598 22.9661C36.3889 23.0185 36.43 23.0603 36.4824 23.0901C36.5355 23.1191 36.59 23.134 36.6467 23.134C36.7047 23.134 36.76 23.1191 36.8117 23.0901C36.8641 23.0603 36.9052 23.0185 36.9342 22.9661C36.9647 22.9137 36.9781 22.8592 36.9781 22.8018C36.9781 22.7437 36.964 22.6885 36.9342 22.6361C36.9052 22.5823 36.8627 22.5412 36.8096 22.5129C36.7572 22.4838 36.7033 22.4697 36.6467 22.4697C36.5921 22.4697 36.5376 22.4838 36.4838 22.5129ZM36.8868 22.6623C36.9115 22.7069 36.925 22.7529 36.925 22.8004C36.925 22.8478 36.913 22.8946 36.8882 22.9378C36.8641 22.9817 36.8301 23.015 36.7855 23.0412C36.7416 23.0653 36.6962 23.078 36.6488 23.078C36.6006 23.078 36.5546 23.0653 36.5114 23.0412C36.4668 23.0164 36.4335 22.9824 36.408 22.9378C36.3825 22.8932 36.3712 22.8478 36.3712 22.8004C36.3712 22.7529 36.3832 22.7069 36.4094 22.6623C36.4342 22.6184 36.4675 22.5844 36.5128 22.5596C36.5581 22.5348 36.6028 22.5242 36.6488 22.5242C36.6948 22.5242 36.7402 22.5362 36.7834 22.5596C36.8287 22.5844 36.862 22.6177 36.8868 22.6623ZM32.4491 21.4045C32.4491 22.3004 32.8946 23.1779 33.8039 23.1779C34.1595 23.1779 34.4289 23.0433 34.601 22.9202C34.67 22.8708 34.7959 22.9328 34.7856 23.017C34.7795 23.0671 34.8186 23.1113 34.8691 23.1113H35.38C35.6434 23.1113 35.8679 22.92 35.9098 22.6599L36.5719 18.542C36.6248 18.2127 36.3701 17.9143 36.0365 17.9149L35.9623 17.9151C35.7399 17.9155 35.5506 18.0771 35.5151 18.2967C35.4508 18.6958 34.8302 18.8722 34.4294 18.8191C34.3828 18.8129 34.3348 18.8096 34.2855 18.8096C33.2834 18.8103 32.4491 20.0178 32.4491 21.4045ZM35.0681 20.7678C35.0681 21.345 34.7826 22.1163 34.1906 22.1163C33.7968 22.1163 33.6127 21.7862 33.6127 21.2678C33.6127 20.4201 33.993 19.8613 34.4739 19.8613C34.8662 19.862 35.0681 20.1318 35.0681 20.7678ZM36.8464 26.2416C36.8413 26.2369 36.8445 26.2183 36.851 26.2159C36.8663 26.2104 36.8795 26.2018 36.8903 26.1906C36.908 26.1715 36.9179 26.1488 36.9179 26.1226C36.9179 26.1042 36.9123 26.0865 36.9016 26.0702C36.891 26.0539 36.8754 26.0419 36.8563 26.0355C36.8386 26.0284 36.8081 26.0249 36.7664 26.0249C36.6983 26.0249 36.6431 26.0801 36.6431 26.1481V26.3535C36.6431 26.3695 36.6561 26.3825 36.6722 26.3825C36.6882 26.3825 36.7012 26.3695 36.7012 26.3535V26.2636C36.7012 26.2452 36.7161 26.2303 36.7345 26.2303C36.7543 26.2303 36.7706 26.2345 36.7798 26.243C36.7947 26.2551 36.8159 26.2827 36.8407 26.3259L36.8634 26.3671C36.8686 26.3766 36.8786 26.3825 36.8895 26.3825C36.913 26.3825 36.9273 26.3567 36.9148 26.3369L36.8995 26.3124C36.8783 26.2799 36.8606 26.2565 36.8464 26.2416ZM36.7706 26.1821H36.7536C36.7239 26.1821 36.6998 26.158 36.6998 26.1283C36.6998 26.0986 36.7239 26.0745 36.7536 26.0745H36.7664C36.794 26.0745 36.8124 26.0766 36.823 26.0808C36.8344 26.0851 36.8414 26.0915 36.8478 26.0993C36.8535 26.1078 36.8563 26.117 36.8563 26.1269C36.8563 26.1432 36.8506 26.1573 36.8386 26.1672C36.8266 26.1772 36.8032 26.1821 36.7706 26.1821ZM39.6368 7.53906H1.69625C1.12684 7.53906 0.666504 8.00011 0.666504 8.56881V32.4321C0.666504 33.0008 1.12684 33.4619 1.69625 33.4619H39.6368C40.2062 33.4619 40.6665 33.0008 40.6665 32.4321V8.56881C40.6665 8.00011 40.2062 7.53906 39.6368 7.53906ZM37.0751 26.3634C37.0454 26.4173 37.005 26.4583 36.9526 26.4874C36.9002 26.5164 36.845 26.5313 36.7883 26.5313C36.7302 26.5313 36.675 26.5164 36.6226 26.4874C36.5709 26.4583 36.5298 26.4173 36.4994 26.3634C36.4703 26.3117 36.4555 26.2565 36.4555 26.1991C36.4555 26.1418 36.4703 26.0872 36.5001 26.0334C36.5291 25.9796 36.5716 25.9392 36.624 25.9102C36.6771 25.8825 36.7309 25.8677 36.7876 25.8677C36.8436 25.8677 36.8974 25.8825 36.9498 25.9102C37.0029 25.9392 37.0447 25.9796 37.0737 26.0334C37.1035 26.0872 37.1176 26.1425 37.1176 26.1991C37.1176 26.2558 37.1049 26.3124 37.0751 26.3634ZM37.8174 20.5008C37.8188 26.1701 33.2253 30.7678 27.5553 30.7692C23.2728 30.7704 18.0651 30.7664 13.7827 30.7664C8.11622 30.7664 3.51707 26.168 3.51707 20.5008C3.51707 14.8563 8.0801 10.2714 13.7168 10.2345C13.7387 10.2345 13.7607 10.2345 13.7827 10.2345C18.066 10.2345 23.267 10.2335 27.5504 10.2324C33.2185 10.2303 37.8145 14.823 37.8188 20.4905C37.8188 20.4939 37.8174 20.4974 37.8174 20.5008ZM36.6268 22.6276C36.558 22.6276 36.5022 22.6834 36.5022 22.7522V22.9555C36.5022 22.9715 36.5152 22.9845 36.5312 22.9845C36.5473 22.9845 36.5603 22.9715 36.5603 22.9555V22.8663C36.5603 22.8479 36.5752 22.833 36.5936 22.833C36.6141 22.833 36.6304 22.8372 36.6403 22.845C36.6552 22.8578 36.675 22.8847 36.7012 22.9293L36.7232 22.9697C36.7284 22.9793 36.7385 22.9852 36.7494 22.9852C36.7728 22.9852 36.7871 22.9595 36.7746 22.9396L36.7593 22.9151C36.7387 22.8818 36.7203 22.8585 36.7069 22.8443C36.7011 22.839 36.7041 22.8213 36.7114 22.8186C36.7264 22.813 36.7393 22.8045 36.7501 22.7933C36.7678 22.7749 36.7784 22.7508 36.7784 22.7253C36.7784 22.7076 36.7727 22.6892 36.7614 22.6729C36.7501 22.6573 36.7352 22.6453 36.7175 22.6382C36.6998 22.6311 36.6686 22.6276 36.6268 22.6276ZM36.7083 22.7005C36.7147 22.7097 36.7175 22.7175 36.7175 22.7296C36.7175 22.7452 36.7111 22.7586 36.7005 22.7685C36.687 22.7791 36.6651 22.7834 36.6318 22.7834H36.6155C36.5858 22.7834 36.5617 22.7593 36.5617 22.7296C36.5617 22.6998 36.5858 22.6757 36.6155 22.6757H36.6268C36.6375 22.6757 36.6468 22.6761 36.6548 22.6766C36.6751 22.678 36.6976 22.6832 36.7083 22.7005ZM29.044 18.7813C28.5684 18.7813 28.1639 18.8779 27.9312 18.9487C27.7976 18.9894 27.7055 19.1055 27.6822 19.2432C27.629 19.558 27.9541 19.8392 28.271 19.8005C28.4143 19.783 28.5756 19.7714 28.7515 19.7714C29.1587 19.7714 29.4569 19.8167 29.4569 20.1474C29.4569 20.3164 29.3092 20.4131 29.1404 20.4037C29.0698 20.3997 28.9998 20.3967 28.9491 20.3967C28.0043 20.3967 27.0121 20.799 27.0121 22.0164C27.0121 22.9753 27.6637 23.1942 28.0674 23.1942C28.5544 23.1942 28.8666 22.9944 29.0349 22.847C29.1207 22.7718 29.1795 22.7963 29.1697 22.9101C29.1604 23.0179 29.2454 23.1106 29.3536 23.1106H29.6879C29.9324 23.1106 30.1397 22.9308 30.1743 22.6887L30.5433 20.1007C30.5454 18.8223 29.4307 18.7813 29.044 18.7813ZM28.5057 22.2777C28.1658 22.2777 28.078 22.0192 28.078 21.8648C28.078 21.566 28.2402 21.2062 29.0411 21.2062C29.1836 21.2067 29.2861 21.3304 29.2598 21.4704C29.1998 21.7905 28.9999 22.2777 28.5057 22.2777ZM32.7058 19.4969C32.6107 19.8164 32.2 20.042 32.026 20.3263C31.7761 20.7347 31.6713 21.6146 31.502 22.662C31.4588 22.929 31.2271 23.1233 30.9567 23.1233C30.6136 23.1233 30.3519 22.8162 30.4065 22.4774L30.9164 19.3101C30.9556 19.0661 31.1661 18.8868 31.4132 18.8868H31.8987C31.9534 18.8868 31.9951 18.9357 31.9865 18.9897C31.9708 19.0884 32.1483 19.1617 32.2203 19.0924C32.3646 18.9537 32.5498 18.833 32.7579 18.833C32.8648 18.833 32.9215 18.9402 32.8772 19.0375C32.8185 19.1664 32.7619 19.3082 32.7058 19.4969Z" fill="white"/>
</g>
<defs>
<clipPath id="clip0_17438_24">
<rect width="40" height="40" fill="white" transform="translate(0.666504 0.5)"/>
</clipPath>
</defs>
</svg>
