<svg width="41" height="41" viewBox="0 0 41 41" fill="none" xmlns="http://www.w3.org/2000/svg">
<g clip-path="url(#clip0_17438_13)">
<path d="M37.9998 33.8334H3.33317C1.86095 33.8334 0.666504 32.639 0.666504 31.1667V9.83341C0.666504 8.36119 1.86095 7.16675 3.33317 7.16675H37.9998C39.4721 7.16675 40.6665 8.36119 40.6665 9.83341V31.1667C40.6665 32.639 39.4721 33.8334 37.9998 33.8334ZM20.4887 23.569L20.0898 26.069C20.9676 26.4445 21.9887 26.6634 23.0609 26.6634C23.1465 26.6634 23.2309 26.6623 23.3154 26.659H23.3032C23.4009 26.6645 23.5143 26.6679 23.6298 26.6679C24.8621 26.6679 26.0043 26.2812 26.9421 25.6223L26.9232 25.6345C27.7743 25.0034 28.3209 24.0023 28.3209 22.8734C28.3209 22.8679 28.3209 22.8623 28.3209 22.8567V22.8579C28.3209 21.6356 27.5032 20.6201 25.8909 19.8356C25.4176 19.6045 25.0132 19.3623 24.6332 19.089L24.6587 19.1067C24.4387 18.9623 24.2921 18.7234 24.2776 18.449V18.4467C24.2954 18.1579 24.4609 17.9112 24.6987 17.7801L24.7032 17.7779C25.0165 17.5956 25.3921 17.4879 25.7943 17.4879C25.841 17.4879 25.8876 17.489 25.9343 17.4923H25.9276H26.0165C26.0421 17.4923 26.0721 17.4912 26.1021 17.4912C26.8176 17.4912 27.4965 17.6456 28.1087 17.9223L28.0776 17.9101L28.3376 18.049L28.7365 15.6367C27.9865 15.3401 27.1165 15.1679 26.2065 15.1679C26.1887 15.1679 26.1698 15.1679 26.1521 15.1679H26.1554C26.0843 15.1645 26.0009 15.1623 25.9176 15.1623C24.6998 15.1623 23.5709 15.5479 22.6476 16.2034L22.6654 16.1912C21.8298 16.7867 21.2909 17.7512 21.2909 18.8423V18.8479C21.2798 20.0234 22.1265 21.039 23.8087 21.8701C24.2532 22.0645 24.6365 22.3023 24.9798 22.5879L24.9721 22.5812C25.1665 22.7456 25.2921 22.9867 25.3021 23.2567V23.259V23.2612C25.3021 23.6156 25.091 23.9201 24.7865 24.0567L24.7809 24.059C24.4476 24.2345 24.0521 24.3367 23.6321 24.3367C23.6154 24.3367 23.5976 24.3367 23.5809 24.3367H23.5832C23.5587 24.3367 23.5287 24.3367 23.4998 24.3367C22.5476 24.3367 21.6454 24.1256 20.8365 23.7479L20.8754 23.7645L20.4943 23.5734L20.4887 23.569ZM31.7387 24.8367H35.4221C35.4813 25.0908 35.5972 25.6464 35.7698 26.5034H38.4443L36.1176 15.3579H33.8954C33.8565 15.3545 33.811 15.3523 33.7643 15.3523C33.1398 15.3523 32.6054 15.739 32.3876 16.2856L32.3843 16.2956L28.1176 26.5034H31.1398L31.7465 24.8379L31.7387 24.8367ZM17.2121 15.3579L15.4054 26.5034H18.2876L20.0932 15.3579H17.2121ZM6.13539 17.6323L8.47984 26.4856H11.5176L16.0454 15.3579H12.9943L10.1787 22.9623L9.88317 21.4167L8.87873 16.2956C8.77762 15.7523 8.30762 15.3456 7.74206 15.3456C7.68428 15.3456 7.6265 15.3501 7.57095 15.3579L7.57762 15.3567H2.92539L2.89095 15.5823C6.47317 16.4923 8.8265 18.4556 9.88651 21.4156C9.54317 20.5356 9.04206 19.7856 8.41317 19.1667L8.41206 19.1656C7.78206 18.519 7.02539 18.0001 6.18206 17.6456L6.13762 17.629L6.13539 17.6323ZM34.9543 22.5445H32.5543C32.7165 22.1164 33.0987 21.0793 33.701 19.4334L33.7521 19.2767C33.7987 19.1612 33.8565 19.0101 33.9298 18.8256C34.0032 18.6412 34.0521 18.4901 34.0854 18.3745L34.2943 19.329L34.9532 22.5401L34.9543 22.5445Z" fill="white"/>
</g>
<defs>
<clipPath id="clip0_17438_13">
<rect width="40" height="40" fill="white" transform="translate(0.666504 0.5)"/>
</clipPath>
</defs>
</svg>
