<?xml version="1.0" encoding="utf-8"?><svg xmlns="http://www.w3.org/2000/svg" xmlns:xlink="http://www.w3.org/1999/xlink"><symbol viewBox="0 0 80 46" id="logo" xmlns="http://www.w3.org/2000/svg"><g clip-path="url(#aa)"><path d="M70.333 34.117c-.313 0-.549-.15-.731-.5-.157-.301-.262-.802-.262-1.403V13.736c0-.6.079-1.102.261-1.402.183-.3.419-.45.732-.45h1.75c.392 0 .732.05 1.02.1.287.1.548.25.731.55.21.3.34.701.444 1.302.105.551.157 1.352.157 2.304v13.72c0 1.253-.078 2.154-.261 2.755-.183.6-.444 1.001-.784 1.202-.34.2-.784.3-1.306.25l-1.75.05Zm-5.617-33c-.314.05-.575.2-.732.5-.157.301-.235.802-.235 1.403v39.96c0 .602.078 1.052.261 1.403.157.3.418.5.732.5h7.263c1.516 0 2.822-.3 3.867-.9 1.045-.602 1.881-1.553 2.508-2.755s1.097-2.804 1.359-4.707c.287-1.903.418-4.107.418-6.66V16.14c0-2.554-.13-4.758-.418-6.66-.288-1.903-.732-3.456-1.359-4.657-.627-1.252-1.463-2.154-2.508-2.755-1.045-.6-2.325-.901-3.867-.901l-7.29-.05Zm-9.51 26.39c0 1.202-.026 2.303-.053 3.255-.052.951-.156 1.753-.313 2.454-.157.7-.418 1.202-.784 1.552-.34.35-.81.55-1.41.55-.602 0-1.072-.2-1.412-.55-.365-.35-.6-.851-.783-1.552-.157-.651-.262-1.503-.314-2.454-.052-.951-.078-2.053-.052-3.255v-9.014c0-1.201.026-2.303.052-3.255.052-.951.157-1.752.314-2.453.156-.701.418-1.202.783-1.553.34-.35.81-.55 1.411-.55s1.072.2 1.411.55c.366.35.601.852.784 1.553.157.65.261 1.502.313 2.453.053.952.053 2.053.053 3.255v9.014Zm5.59-12.319c0-.7-.025-1.552-.078-2.554a30.311 30.311 0 0 0-.34-3.204 24.161 24.161 0 0 0-.783-3.356c-.366-1.101-.836-2.103-1.437-3.004A7.197 7.197 0 0 0 55.885.866c-.914-.55-2.012-.8-3.292-.85-1.28 0-2.378.3-3.292.85a7.197 7.197 0 0 0-2.273 2.204c-.6.901-1.071 1.903-1.437 3.004a19.47 19.47 0 0 0-.784 3.356 30.34 30.34 0 0 0-.34 3.204 50.269 50.269 0 0 0-.078 2.554v15.624c0 .701.026 1.552.079 2.554.052 1.002.156 2.053.34 3.205.156 1.152.443 2.253.783 3.355a13.78 13.78 0 0 0 1.437 3.055c.601.901 1.359 1.652 2.273 2.153.914.55 2.012.851 3.292.851 1.28 0 2.378-.3 3.292-.851a7.04 7.04 0 0 0 2.273-2.153c.6-.902 1.071-1.903 1.437-3.055a19.5 19.5 0 0 0 .784-3.355c.157-1.152.287-2.203.34-3.205.052-1.002.078-1.853.078-2.554V15.188ZM36.213 27.507c0 1.202-.027 2.303-.053 3.255-.052.951-.156 1.753-.313 2.454-.157.7-.418 1.202-.784 1.552-.34.35-.81.55-1.41.55-.602 0-1.072-.2-1.412-.55-.365-.35-.6-.851-.784-1.552-.156-.651-.26-1.503-.313-2.454-.052-.951-.078-2.053-.052-3.255v-9.014c0-1.201.026-2.303.052-3.255a15.07 15.07 0 0 1 .313-2.453c.157-.701.419-1.202.784-1.553.34-.35.81-.55 1.411-.55s1.071.2 1.411.55c.366.35.6.852.784 1.553.157.65.261 1.502.313 2.453.053.952.053 2.053.053 3.255v9.014Zm5.617-12.319c0-.7-.026-1.552-.078-2.554a30.34 30.34 0 0 0-.34-3.204 24.147 24.147 0 0 0-.784-3.356c-.366-1.101-.836-2.103-1.437-3.004A7.197 7.197 0 0 0 36.917.866c-.914-.55-2.012-.8-3.292-.85-1.28 0-2.378.3-3.292.85A7.196 7.196 0 0 0 28.06 3.07c-.6.901-1.071 1.903-1.437 3.004a19.47 19.47 0 0 0-.784 3.356 30.34 30.34 0 0 0-.34 3.204 50.255 50.255 0 0 0-.078 2.554v15.624c0 .701.026 1.552.079 2.554.052 1.002.156 2.053.34 3.205.156 1.152.443 2.253.783 3.355a13.777 13.777 0 0 0 1.437 3.055c.601.901 1.359 1.652 2.273 2.153.915.55 2.012.851 3.292.851 1.28 0 2.378-.3 3.292-.851a7.04 7.04 0 0 0 2.273-2.153c.601-.902 1.071-1.903 1.437-3.055a19.5 19.5 0 0 0 .784-3.355c.157-1.152.287-2.203.34-3.205.052-1.002.078-1.853.078-2.554V15.188ZM22.547 1.117c.654 0 .967.65.967 1.853v7.01c0 .601-.078 1.052-.235 1.402-.157.351-.418.501-.732.501H14.03c-.313 0-.549.15-.731.45-.183.301-.262.802-.262 1.403v29.295c0 .6-.078 1.051-.235 1.402-.157.3-.418.5-.732.5H8.23c-.314 0-.549-.15-.732-.5-.156-.35-.26-.801-.26-1.402V3.02c0-.601.077-1.102.26-1.402.183-.3.418-.451.732-.451l14.317-.05Z"/><path d="M15.284 24.903c-2.43-.4-14.291 3.305-15.18-.701-1.489-6.66 10.974-2.904 12.646-2.804.836.05 1.88.35 2.482.05.418-.25.705-1.553 1.175-2.053 1.046-1.202 2.744-.551 4.207-.3.993.15 1.96.35 3.005.5-1.49.4-3.083.801-4.651 1.202-.183.05-.47-.1-.6.3 1.593.501 3.396.601 5.12.852-1.698.5-3.606.6-5.278 1.201.105.35.418.25.601.3 1.49.201 3.135.451 4.703.602-1.62.5-3.501.6-5.12 1.202.051.5.391.35.548.35 1.49.35 3.161.751 4.703 1.002-1.699.25-3.789 1.001-5.54 1.201-1.358.15-2.168-1.352-2.82-2.904Z"/><path d="M11.078 25.304c1.88-.3 3.475-.551 4.206-.451.34.801.68 1.552 1.15 2.103.444.551.966.902 1.646.801.966-.1 2.038-.4 3.083-.65.757-.2 1.489-.401 2.168-.501-.68-.1-1.358-.25-2.064-.401-.81-.15-1.594-.35-2.325-.55h-.13c-.184 0-.419 0-.445-.401v-.05h.026c.888-.351 1.881-.551 2.874-.702.68-.1 1.359-.25 1.986-.4-1.176-.15-2.404-.3-3.553-.45-.288-.05-.575-.101-.863-.101h-.13c-.183 0-.392 0-.497-.3l-.026-.05h.026c.94-.351 1.96-.551 2.979-.702.679-.1 1.384-.25 2.038-.4-.34-.05-.706-.1-1.046-.15-1.306-.15-2.638-.3-3.814-.652h-.052l.026-.05c.104-.3.287-.3.444-.3h.157l1.254-.3c1.045-.25 2.116-.551 3.109-.802-.601-.1-1.202-.2-1.777-.3-.313-.05-.6-.1-.94-.15l-.784-.15c-1.254-.251-2.56-.551-3.396.45-.21.25-.392.651-.55 1.052-.208.45-.391.901-.626 1.051-.418.2-1.045.15-1.672.05-.288-.05-.575-.1-.836-.1-.288 0-.889-.15-1.672-.3-2.822-.852-8.126-1.903-10.19-.2-.731.6-1.045 1.502-.731 2.954.6 2.754 6.557 1.803 10.947 1.102Zm4.206-.35c-.732-.101-2.325.15-4.206.45-4.39.7-10.373 1.652-11-1.202-.34-1.502 0-2.454.758-3.105 2.09-1.702 7.394-.65 10.242-.1.784.15 1.384.3 1.672.3.261 0 .548.05.836.1.627.1 1.228.15 1.646-.05.209-.1.392-.55.6-1 .184-.402.34-.802.575-1.053.863-1.001 2.169-.7 3.45-.45l.783.15c.287.05.627.1.94.15.68.1 1.36.25 2.065.3l.287.05-.261.101c-1.072.3-2.221.6-3.37.901l-1.255.3h-.156c-.131 0-.288 0-.392.201 1.175.35 2.482.5 3.788.651l1.306.15.262.05-.262.05c-.731.2-1.515.351-2.299.501-.993.2-2.012.35-2.926.701.078.2.261.2.418.2h.13c.288.05.576.1.863.1 1.254.201 2.56.351 3.814.502l.262.05-.262.1c-.731.2-1.489.35-2.246.5-.967.2-1.934.351-2.822.702.052.3.235.25.392.25h.13c.758.15 1.542.35 2.326.55.783.151 1.593.351 2.351.452v.1c-.758.1-1.62.35-2.482.55-1.045.25-2.116.551-3.083.652-.68.1-1.228-.25-1.672-.802-.523-.5-.888-1.252-1.202-2.053Z"/></g><defs><clipPath id="aa"><path d="M0 0h80v46H0z"/></clipPath></defs></symbol><symbol viewBox="0 0 40 40" id="slide-btn" xmlns="http://www.w3.org/2000/svg"><path d="M3.333 9.992a1.66 1.66 0 0 1 1.659-1.659h13.35a1.658 1.658 0 0 1 0 3.317H4.992a1.658 1.658 0 0 1-1.659-1.658Zm0 10.008c0-.917.744-1.658 1.659-1.658h30.016a1.658 1.658 0 0 1 0 3.316H4.992A1.658 1.658 0 0 1 3.333 20Zm1.659 8.35a1.658 1.658 0 1 0 0 3.317h20.016a1.658 1.658 0 1 0 0-3.317H4.992Z"/></symbol><symbol viewBox="0 0 40 40" id="telegram-icon" xmlns="http://www.w3.org/2000/svg"><path d="m29.611 11.228-19.684 7.24c-1.344.515-1.336 1.23-.247 1.55l5.054 1.503 11.693-7.038c.553-.32 1.058-.148.643.204l-9.474 8.156h-.002.002l-.349 4.97c.511 0 .737-.224 1.023-.487l2.455-2.277 5.106 3.597c.941.495 1.617.24 1.852-.831l3.352-15.068c.343-1.313-.526-1.907-1.424-1.519Z"/></symbol><symbol viewBox="0 0 40 40" id="vk-icon" xmlns="http://www.w3.org/2000/svg"><path d="M36.614 11.475c.284.766-.587 2.553-2.611 5.361-.284.383-.648.894-1.093 1.532-.931 1.191-1.458 1.979-1.58 2.362-.202.51-.12 1 .244 1.468.202.255.668.765 1.396 1.531h.061v.064c1.66 1.574 2.774 2.915 3.34 4.021l.122.255.121.479v.606l-.425.479-1.032.223-4.434.128c-.283.043-.617 0-1.002-.128-.384-.127-.678-.255-.88-.383l-.365-.255c-.364-.255-.769-.638-1.214-1.149-.446-.51-.84-.978-1.185-1.404a6.229 6.229 0 0 0-1.062-1.053c-.365-.276-.689-.372-.972-.287-.04 0-.091.021-.152.064-.06.042-.162.138-.304.287a2.09 2.09 0 0 0-.364.542c-.101.213-.192.522-.273.926a7.4 7.4 0 0 0-.122 1.436c0 .17-.02.33-.06.479a2.284 2.284 0 0 1-.122.35l-.06.065c-.244.255-.567.382-.972.382H19.67c-.85.085-1.71 0-2.581-.255-.87-.255-1.63-.585-2.277-.99A22.105 22.105 0 0 1 13.05 27.4c-.526-.404-.93-.755-1.214-1.053l-.425-.447c-.122-.085-.284-.255-.486-.51a76.645 76.645 0 0 1-1.245-1.66 41.424 41.424 0 0 1-1.853-2.744c-.607-.979-1.315-2.266-2.125-3.861a63.666 63.666 0 0 1-2.247-4.947c-.081-.213-.122-.383-.122-.51 0-.128.02-.235.061-.32l.06-.063c.163-.256.487-.383.972-.383h4.798c.122 0 .243.031.365.095l.303.16.061.064c.203.127.344.319.425.574.243.596.516 1.223.82 1.883.304.66.537 1.16.698 1.5l.243.51c.365.724.699 1.351 1.003 1.883.303.532.576.947.82 1.245.242.298.485.532.728.702.243.17.446.255.607.255.162 0 .324-.021.486-.064l.061-.095.213-.415.242-.83.152-1.468v-2.298c-.04-.468-.1-.904-.182-1.308-.08-.404-.162-.691-.243-.862l-.06-.191c-.284-.426-.79-.702-1.519-.83-.121 0-.08-.149.122-.447a2.57 2.57 0 0 1 .668-.51c.607-.34 1.984-.49 4.13-.447.93 0 1.72.085 2.368.255.203.043.385.117.547.224a.972.972 0 0 1 .364.446c.081.192.142.383.182.575.04.191.061.468.061.83v.989c-.04.34-.06.766-.06 1.276v1.532c0 .128-.01.383-.031.766-.02.383-.03.68-.03.894 0 .212.02.457.06.734.04.276.112.51.213.702.101.191.233.33.395.415.08.042.172.074.273.095.101.022.253-.042.455-.191.203-.15.425-.362.668-.638.243-.277.547-.692.911-1.245.365-.553.75-1.191 1.154-1.915a34.88 34.88 0 0 0 1.883-4.148c.04-.085.091-.181.152-.287a.548.548 0 0 1 .212-.224h.061l.06-.064.244-.064h.364l4.98-.063c.445-.043.82-.022 1.124.063.303.086.475.192.516.32l.121.191Z"/></symbol><symbol viewBox="0 0 40 40" id="youtube-icon" xmlns="http://www.w3.org/2000/svg"><path d="M35.969 12.373a3.869 3.869 0 0 0-1.064-1.764 4.235 4.235 0 0 0-1.858-1.03c-2.608-.687-13.055-.687-13.055-.687-4.356-.05-8.71.168-13.039.652A4.388 4.388 0 0 0 5.095 10.6a4.022 4.022 0 0 0-1.08 1.771 40.395 40.395 0 0 0-.678 7.63 40.32 40.32 0 0 0 .678 7.628c.19.665.56 1.272 1.076 1.762.515.49 1.157.845 1.862 1.032 2.643.686 13.039.686 13.039.686 4.36.05 8.72-.169 13.055-.653a4.235 4.235 0 0 0 1.858-1.03 3.86 3.86 0 0 0 1.062-1.764c.48-2.514.712-5.07.696-7.63a36.899 36.899 0 0 0-.694-7.66ZM16.67 24.755v-9.508l8.693 4.755-8.693 4.753Z"/></symbol></svg>